<svg xmlns="http://www.w3.org/2000/svg" xmlns:xlink="http://www.w3.org/1999/xlink" width="500" zoomAndPan="magnify" viewBox="0 0 375 374.999991" height="500" preserveAspectRatio="xMidYMid meet" version="1.0"><defs><g/><clipPath id="ceb27db861"><path d="M 50.25 0 L 324.75 0 C 352.503906 0 375 22.496094 375 50.25 L 375 324.75 C 375 352.503906 352.503906 375 324.75 375 L 50.25 375 C 22.496094 375 0 352.503906 0 324.75 L 0 50.25 C 0 22.496094 22.496094 0 50.25 0 Z M 50.25 0 " clip-rule="nonzero"/></clipPath><clipPath id="5931d0c0c2"><path d="M 0 0 L 375 0 L 375 375 L 0 375 Z M 0 0 " clip-rule="nonzero"/></clipPath><clipPath id="dcab8ea52f"><path d="M 50.25 0 L 324.75 0 C 352.503906 0 375 22.496094 375 50.25 L 375 324.75 C 375 352.503906 352.503906 375 324.75 375 L 50.25 375 C 22.496094 375 0 352.503906 0 324.75 L 0 50.25 C 0 22.496094 22.496094 0 50.25 0 Z M 50.25 0 " clip-rule="nonzero"/></clipPath><clipPath id="de4603e7bc"><rect x="0" width="375" y="0" height="375"/></clipPath><clipPath id="7c5727f193"><rect x="0" width="63" y="0" height="102"/></clipPath><clipPath id="6723f6f2fc"><rect x="0" width="229" y="0" height="162"/></clipPath><clipPath id="d67e5cebb8"><rect x="0" width="340" y="0" height="194"/></clipPath><clipPath id="233796a3dd"><rect x="0" width="77" y="0" height="167"/></clipPath></defs><rect x="-37.5" width="450" fill="#ffffff" y="-37.499999" height="449.999989" fill-opacity="1"/><rect x="-37.5" width="450" fill="#ffffff" y="-37.499999" height="449.999989" fill-opacity="1"/><g clip-path="url(#ceb27db861)"><g transform="matrix(1, 0, 0, 1, 0, 0)"><g clip-path="url(#de4603e7bc)"><g clip-path="url(#5931d0c0c2)"><g clip-path="url(#dcab8ea52f)"><rect x="-82.5" width="540" fill="#d52b1e" height="539.999987" y="-82.499998" fill-opacity="1"/></g></g></g></g></g><g transform="matrix(1, 0, 0, 1, 305, 207)"><g clip-path="url(#7c5727f193)"><g fill="#fff8e9" fill-opacity="1"><g transform="translate(48.930926, 101.071914)"><g><path d="M -2.625 -10.09375 C -2.175781 -10.09375 -1.734375 -9.953125 -1.296875 -9.671875 C -0.867188 -9.398438 -0.484375 -9.039062 -0.140625 -8.59375 C 0.191406 -8.15625 0.457031 -7.679688 0.65625 -7.171875 C 0.863281 -6.671875 0.96875 -6.195312 0.96875 -5.75 C 0.96875 -5.195312 0.847656 -4.628906 0.609375 -4.046875 C 0.367188 -3.472656 0.0195312 -2.988281 -0.4375 -2.59375 C -0.894531 -2.195312 -1.429688 -2 -2.046875 -2 C -2.566406 -2 -3.007812 -2.160156 -3.375 -2.484375 C -3.738281 -2.804688 -4.03125 -3.210938 -4.25 -3.703125 C -4.46875 -4.203125 -4.628906 -4.722656 -4.734375 -5.265625 C -4.835938 -5.804688 -4.890625 -6.304688 -4.890625 -6.765625 C -4.890625 -7.523438 -4.785156 -8.171875 -4.578125 -8.703125 C -4.378906 -9.242188 -3.929688 -9.671875 -3.234375 -9.984375 C -3.140625 -10.046875 -3.039062 -10.078125 -2.9375 -10.078125 C -2.84375 -10.085938 -2.738281 -10.09375 -2.625 -10.09375 Z M -2.625 -10.09375 "/></g></g></g><g fill="#fff8e9" fill-opacity="1"><g transform="translate(48.930926, 92.270992)"><g><path d="M -27.109375 -27.9375 C -27.109375 -27.9375 -27.097656 -27.796875 -27.078125 -27.515625 C -27.054688 -27.234375 -27.007812 -26.695312 -26.9375 -25.90625 C -26.875 -25.125 -26.800781 -23.976562 -26.71875 -22.46875 C -26.632812 -20.957031 -26.53125 -18.96875 -26.40625 -16.5 C -26.40625 -16.5 -26.203125 -16.488281 -25.796875 -16.46875 C -25.390625 -16.457031 -24.847656 -16.460938 -24.171875 -16.484375 C -23.503906 -16.515625 -22.78125 -16.585938 -22 -16.703125 C -21.21875 -16.828125 -20.445312 -17.019531 -19.6875 -17.28125 L -19.71875 -23.578125 C -19.71875 -23.578125 -19.71875 -23.726562 -19.71875 -24.03125 C -19.726562 -24.332031 -19.738281 -24.679688 -19.75 -25.078125 C -19.757812 -25.472656 -19.765625 -25.820312 -19.765625 -26.125 C -19.773438 -26.425781 -19.789062 -26.566406 -19.8125 -26.546875 C -19.820312 -26.535156 -19.707031 -26.550781 -19.46875 -26.59375 C -19.226562 -26.632812 -18.941406 -26.675781 -18.609375 -26.71875 C -18.285156 -26.769531 -18.003906 -26.816406 -17.765625 -26.859375 C -17.523438 -26.898438 -17.40625 -26.921875 -17.40625 -26.921875 L -14.390625 -26.921875 C -14.390625 -26.921875 -14.332031 -25.910156 -14.21875 -23.890625 C -14.113281 -21.878906 -14.046875 -18.890625 -14.015625 -14.921875 L -7.859375 -14.75 L -7.203125 -15.359375 L -7.109375 -27.234375 C -7.109375 -27.234375 -7.117188 -27.125 -7.140625 -26.90625 C -7.160156 -26.695312 -7.179688 -26.578125 -7.203125 -26.546875 C -7.222656 -26.535156 -7.171875 -26.625 -7.046875 -26.8125 C -6.921875 -27 -6.796875 -27.179688 -6.671875 -27.359375 C -6.554688 -27.546875 -6.5 -27.640625 -6.5 -27.640625 L 0.40625 -27.890625 C 0.40625 -27.890625 0.394531 -27.921875 0.375 -27.984375 C 0.363281 -28.046875 0.347656 -28.046875 0.328125 -27.984375 C 0.316406 -27.921875 0.304688 -27.695312 0.296875 -27.3125 C 0.296875 -26.9375 0.289062 -26.304688 0.28125 -25.421875 C 0.269531 -24.535156 0.273438 -23.296875 0.296875 -21.703125 C 0.304688 -19.722656 0.289062 -17.875 0.25 -16.15625 C 0.207031 -14.4375 0.15625 -12.921875 0.09375 -11.609375 C 0.03125 -10.296875 -0.03125 -9.238281 -0.09375 -8.4375 C -0.15625 -7.644531 -0.207031 -7.1875 -0.25 -7.0625 C -0.289062 -6.882812 -0.460938 -6.707031 -0.765625 -6.53125 C -1.066406 -6.363281 -1.441406 -6.191406 -1.890625 -6.015625 C -2.347656 -5.847656 -2.8125 -5.675781 -3.28125 -5.5 C -3.65625 -5.375 -4.328125 -5.253906 -5.296875 -5.140625 C -6.273438 -5.035156 -7.457031 -4.953125 -8.84375 -4.890625 C -10.226562 -4.828125 -11.738281 -4.769531 -13.375 -4.71875 C -15.019531 -4.675781 -16.691406 -4.644531 -18.390625 -4.625 C -20.097656 -4.601562 -21.742188 -4.585938 -23.328125 -4.578125 C -24.921875 -4.578125 -26.375 -4.578125 -27.6875 -4.578125 C -29.007812 -4.585938 -30.09375 -4.597656 -30.9375 -4.609375 C -31.78125 -4.617188 -32.296875 -4.632812 -32.484375 -4.65625 C -33.003906 -4.6875 -33.535156 -4.78125 -34.078125 -4.9375 C -34.628906 -5.101562 -35.085938 -5.257812 -35.453125 -5.40625 C -35.816406 -5.5625 -36 -5.640625 -36 -5.640625 L -36.53125 -26.53125 L -36.4375 -28.0625 C -36.4375 -28.0625 -36.234375 -28.09375 -35.828125 -28.15625 C -35.429688 -28.21875 -34.90625 -28.285156 -34.25 -28.359375 C -33.59375 -28.429688 -32.851562 -28.476562 -32.03125 -28.5 C -31.21875 -28.53125 -30.382812 -28.503906 -29.53125 -28.421875 C -28.675781 -28.347656 -27.867188 -28.1875 -27.109375 -27.9375 Z M -27.109375 -27.9375 "/></g></g></g><g fill="#fff8e9" fill-opacity="1"><g transform="translate(48.930926, 63.22611)"><g><path d="M -1.40625 -4.96875 L -2.265625 -4.5 C -2.492188 -4.519531 -3.054688 -4.535156 -3.953125 -4.546875 C -4.859375 -4.566406 -5.992188 -4.578125 -7.359375 -4.578125 C -8.734375 -4.585938 -10.257812 -4.597656 -11.9375 -4.609375 C -13.613281 -4.617188 -15.363281 -4.628906 -17.1875 -4.640625 C -19.019531 -4.648438 -20.832031 -4.660156 -22.625 -4.671875 C -24.414062 -4.691406 -26.101562 -4.707031 -27.6875 -4.71875 C -29.28125 -4.738281 -30.6875 -4.765625 -31.90625 -4.796875 C -33.132812 -4.828125 -34.09375 -4.867188 -34.78125 -4.921875 C -34.8125 -5.453125 -34.832031 -6.125 -34.84375 -6.9375 C -34.863281 -7.75 -34.863281 -8.617188 -34.84375 -9.546875 C -34.832031 -10.484375 -34.8125 -11.421875 -34.78125 -12.359375 C -34.757812 -13.304688 -34.726562 -14.195312 -34.6875 -15.03125 C -34.644531 -15.863281 -34.597656 -16.578125 -34.546875 -17.171875 C -34.503906 -17.765625 -34.453125 -18.164062 -34.390625 -18.375 C -33.816406 -18.394531 -33.019531 -18.398438 -32 -18.390625 C -30.976562 -18.378906 -29.828125 -18.359375 -28.546875 -18.328125 C -27.265625 -18.296875 -25.921875 -18.265625 -24.515625 -18.234375 C -23.117188 -18.203125 -21.742188 -18.164062 -20.390625 -18.125 C -19.046875 -18.082031 -17.804688 -18.046875 -16.671875 -18.015625 C -15.546875 -17.984375 -14.609375 -17.957031 -13.859375 -17.9375 C -13.109375 -17.914062 -12.625 -17.90625 -12.40625 -17.90625 L -12.828125 -24.125 C -14.671875 -24.101562 -16.519531 -24.097656 -18.375 -24.109375 C -20.226562 -24.117188 -22.019531 -24.128906 -23.75 -24.140625 C -25.488281 -24.160156 -27.097656 -24.175781 -28.578125 -24.1875 C -30.066406 -24.207031 -31.363281 -24.226562 -32.46875 -24.25 C -33.582031 -24.28125 -34.453125 -24.300781 -35.078125 -24.3125 C -35.703125 -24.332031 -36.015625 -24.34375 -36.015625 -24.34375 L -36.390625 -25.546875 C -36.390625 -25.546875 -36.390625 -25.8125 -36.390625 -26.34375 C -36.398438 -26.875 -36.363281 -27.617188 -36.28125 -28.578125 C -36.207031 -29.535156 -36.015625 -30.660156 -35.703125 -31.953125 C -35.703125 -31.984375 -35.375 -32 -34.71875 -32 C -34.0625 -32 -33.160156 -31.988281 -32.015625 -31.96875 C -30.867188 -31.957031 -29.550781 -31.9375 -28.0625 -31.90625 C -26.570312 -31.875 -24.972656 -31.832031 -23.265625 -31.78125 C -21.566406 -31.738281 -19.832031 -31.6875 -18.0625 -31.625 C -16.289062 -31.570312 -14.550781 -31.515625 -12.84375 -31.453125 C -11.144531 -31.398438 -9.546875 -31.347656 -8.046875 -31.296875 C -6.554688 -31.242188 -5.242188 -31.203125 -4.109375 -31.171875 C -2.972656 -31.140625 -2.082031 -31.113281 -1.4375 -31.09375 C -0.789062 -31.070312 -0.46875 -31.0625 -0.46875 -31.0625 Z M -1.40625 -4.96875 "/></g></g></g><g fill="#fff8e9" fill-opacity="1"><g transform="translate(48.930926, 31.894048)"><g><path d="M -0.609375 -29.515625 L -1.09375 -4.203125 C -1.238281 -4.128906 -1.554688 -4.066406 -2.046875 -4.015625 C -2.546875 -3.960938 -3.113281 -3.921875 -3.75 -3.890625 C -4.382812 -3.859375 -5 -3.835938 -5.59375 -3.828125 C -6.195312 -3.828125 -6.695312 -3.820312 -7.09375 -3.8125 C -7.488281 -3.800781 -7.6875 -3.796875 -7.6875 -3.796875 C -7.6875 -3.796875 -7.757812 -3.835938 -7.90625 -3.921875 C -8.050781 -4.003906 -8.195312 -4.09375 -8.34375 -4.1875 C -8.488281 -4.28125 -8.570312 -4.335938 -8.59375 -4.359375 C -8.59375 -4.359375 -8.554688 -4.601562 -8.484375 -5.09375 C -8.421875 -5.59375 -8.332031 -6.234375 -8.21875 -7.015625 C -8.113281 -7.804688 -8.003906 -8.648438 -7.890625 -9.546875 C -7.773438 -10.453125 -7.660156 -11.3125 -7.546875 -12.125 C -7.429688 -12.945312 -7.335938 -13.632812 -7.265625 -14.1875 C -7.203125 -14.738281 -7.171875 -15.0625 -7.171875 -15.15625 C -7.171875 -15.15625 -7.363281 -15.1875 -7.75 -15.25 C -8.144531 -15.320312 -8.617188 -15.394531 -9.171875 -15.46875 C -9.722656 -15.550781 -10.25 -15.628906 -10.75 -15.703125 C -10.914062 -12.597656 -11.113281 -10.097656 -11.34375 -8.203125 C -11.582031 -6.304688 -11.800781 -4.929688 -12 -4.078125 C -12.195312 -3.222656 -12.296875 -2.796875 -12.296875 -2.796875 C -12.296875 -2.765625 -12.578125 -2.738281 -13.140625 -2.71875 C -13.710938 -2.707031 -14.488281 -2.703125 -15.46875 -2.703125 C -16.445312 -2.710938 -17.546875 -2.726562 -18.765625 -2.75 C -19.992188 -2.78125 -21.273438 -2.816406 -22.609375 -2.859375 C -23.941406 -2.910156 -25.242188 -2.96875 -26.515625 -3.03125 C -27.785156 -3.101562 -28.957031 -3.1875 -30.03125 -3.28125 C -31.101562 -3.382812 -31.992188 -3.488281 -32.703125 -3.59375 C -33.421875 -3.707031 -33.878906 -3.835938 -34.078125 -3.984375 C -34.078125 -3.984375 -34.148438 -4.035156 -34.296875 -4.140625 C -34.441406 -4.253906 -34.585938 -4.367188 -34.734375 -4.484375 C -34.890625 -4.597656 -34.96875 -4.660156 -34.96875 -4.671875 C -35.019531 -4.722656 -35.078125 -5.050781 -35.140625 -5.65625 C -35.203125 -6.269531 -35.28125 -7.070312 -35.375 -8.0625 C -35.46875 -9.0625 -35.554688 -10.179688 -35.640625 -11.421875 C -35.734375 -12.660156 -35.816406 -13.941406 -35.890625 -15.265625 C -35.972656 -16.585938 -36.050781 -17.878906 -36.125 -19.140625 C -36.195312 -20.398438 -36.257812 -21.550781 -36.3125 -22.59375 C -36.363281 -23.644531 -36.394531 -24.507812 -36.40625 -25.1875 C -36.425781 -25.875 -36.421875 -26.296875 -36.390625 -26.453125 C -36.367188 -26.515625 -36.097656 -26.570312 -35.578125 -26.625 C -35.054688 -26.6875 -34.351562 -26.742188 -33.46875 -26.796875 C -32.59375 -26.859375 -31.601562 -26.914062 -30.5 -26.96875 C -29.40625 -27.03125 -28.28125 -27.078125 -27.125 -27.109375 C -25.96875 -27.140625 -24.835938 -27.164062 -23.734375 -27.1875 C -22.640625 -27.21875 -21.648438 -27.226562 -20.765625 -27.21875 C -19.890625 -27.207031 -19.191406 -27.1875 -18.671875 -27.15625 C -18.148438 -27.125 -17.878906 -27.078125 -17.859375 -27.015625 C -17.847656 -26.953125 -17.835938 -26.660156 -17.828125 -26.140625 C -17.816406 -25.617188 -17.8125 -24.941406 -17.8125 -24.109375 C -17.8125 -23.285156 -17.8125 -22.367188 -17.8125 -21.359375 C -17.8125 -20.359375 -17.8125 -19.328125 -17.8125 -18.265625 C -17.8125 -17.203125 -17.816406 -16.175781 -17.828125 -15.1875 C -17.835938 -14.195312 -17.84375 -13.300781 -17.84375 -12.5 C -17.851562 -11.707031 -17.859375 -11.082031 -17.859375 -10.625 C -17.859375 -10.164062 -17.859375 -9.9375 -17.859375 -9.9375 L -14.453125 -9.59375 L -13.359375 -30.171875 L -12.953125 -30.5625 C -12.953125 -30.5625 -12.734375 -30.550781 -12.296875 -30.53125 C -11.859375 -30.507812 -11.273438 -30.476562 -10.546875 -30.4375 C -9.828125 -30.40625 -9.03125 -30.363281 -8.15625 -30.3125 C -7.289062 -30.269531 -6.421875 -30.21875 -5.546875 -30.15625 C -4.671875 -30.09375 -3.867188 -30.023438 -3.140625 -29.953125 C -2.410156 -29.878906 -1.8125 -29.804688 -1.34375 -29.734375 C -0.882812 -29.671875 -0.640625 -29.597656 -0.609375 -29.515625 Z M -0.609375 -29.515625 "/></g></g></g></g></g><g transform="matrix(1, 0, 0, 1, 83, 171)"><g clip-path="url(#6723f6f2fc)"><g fill="#fff8e9" fill-opacity="1"><g transform="translate(0.593117, 123.072707)"><g><path d="M 73.59375 -71.40625 C 73.59375 -71.40625 73.21875 -71.375 72.46875 -71.3125 C 71.71875 -71.25 70.304688 -71.128906 68.234375 -70.953125 C 66.160156 -70.785156 63.132812 -70.59375 59.15625 -70.375 C 55.1875 -70.164062 49.957031 -69.890625 43.46875 -69.546875 C 43.46875 -69.546875 43.441406 -69.007812 43.390625 -67.9375 C 43.347656 -66.875 43.359375 -65.457031 43.421875 -63.6875 C 43.492188 -61.914062 43.6875 -60.003906 44 -57.953125 C 44.320312 -55.898438 44.828125 -53.867188 45.515625 -51.859375 L 62.109375 -51.921875 C 62.109375 -51.921875 62.503906 -51.929688 63.296875 -51.953125 C 64.085938 -51.972656 65.003906 -51.992188 66.046875 -52.015625 C 67.097656 -52.035156 68.019531 -52.054688 68.8125 -52.078125 C 69.601562 -52.097656 69.976562 -52.128906 69.9375 -52.171875 C 69.894531 -52.222656 69.925781 -51.925781 70.03125 -51.28125 C 70.132812 -50.632812 70.25 -49.882812 70.375 -49.03125 C 70.507812 -48.175781 70.628906 -47.425781 70.734375 -46.78125 C 70.835938 -46.144531 70.890625 -45.828125 70.890625 -45.828125 L 70.890625 -37.890625 C 70.890625 -37.890625 68.238281 -37.75 62.9375 -37.46875 C 57.644531 -37.1875 49.765625 -37.003906 39.296875 -36.921875 L 38.84375 -20.703125 L 40.453125 -18.96875 L 71.734375 -18.71875 C 71.734375 -18.71875 71.453125 -18.75 70.890625 -18.8125 C 70.335938 -18.875 70.019531 -18.925781 69.9375 -18.96875 C 69.894531 -19.007812 70.117188 -18.867188 70.609375 -18.546875 C 71.097656 -18.234375 71.585938 -17.914062 72.078125 -17.59375 C 72.566406 -17.269531 72.8125 -17.109375 72.8125 -17.109375 L 73.46875 1.09375 C 73.46875 1.09375 73.550781 1.070312 73.71875 1.03125 C 73.882812 0.988281 73.882812 0.941406 73.71875 0.890625 C 73.550781 0.847656 72.960938 0.816406 71.953125 0.796875 C 70.953125 0.773438 69.285156 0.753906 66.953125 0.734375 C 64.628906 0.710938 61.367188 0.722656 57.171875 0.765625 C 51.960938 0.804688 47.09375 0.773438 42.5625 0.671875 C 38.03125 0.566406 34.035156 0.425781 30.578125 0.25 C 27.117188 0.0820312 24.34375 -0.0820312 22.25 -0.25 C 20.15625 -0.425781 18.9375 -0.554688 18.59375 -0.640625 C 18.125 -0.765625 17.660156 -1.222656 17.203125 -2.015625 C 16.753906 -2.804688 16.304688 -3.800781 15.859375 -5 C 15.410156 -6.195312 14.953125 -7.414062 14.484375 -8.65625 C 14.140625 -9.632812 13.828125 -11.40625 13.546875 -13.96875 C 13.273438 -16.539062 13.050781 -19.648438 12.875 -23.296875 C 12.707031 -26.953125 12.5625 -30.9375 12.4375 -35.25 C 12.3125 -39.570312 12.222656 -43.972656 12.171875 -48.453125 C 12.128906 -52.941406 12.097656 -57.28125 12.078125 -61.46875 C 12.054688 -65.65625 12.054688 -69.476562 12.078125 -72.9375 C 12.097656 -76.40625 12.117188 -79.25 12.140625 -81.46875 C 12.160156 -83.695312 12.195312 -85.066406 12.25 -85.578125 C 12.332031 -86.941406 12.585938 -88.335938 13.015625 -89.765625 C 13.441406 -91.203125 13.859375 -92.398438 14.265625 -93.359375 C 14.671875 -94.328125 14.875 -94.8125 14.875 -94.8125 L 69.875 -96.21875 L 73.90625 -95.96875 C 73.90625 -95.96875 73.988281 -95.441406 74.15625 -94.390625 C 74.332031 -93.335938 74.515625 -91.945312 74.703125 -90.21875 C 74.898438 -88.488281 75.03125 -86.546875 75.09375 -84.390625 C 75.15625 -82.234375 75.078125 -80.03125 74.859375 -77.78125 C 74.648438 -75.539062 74.226562 -73.414062 73.59375 -71.40625 Z M 73.59375 -71.40625 "/></g></g></g><g fill="#fff8e9" fill-opacity="1"><g transform="translate(77.101744, 123.072707)"><g><path d="M 10.828125 -94.75 C 14.035156 -95.507812 17.539062 -96.03125 21.34375 -96.3125 C 25.144531 -96.59375 28.988281 -96.695312 32.875 -96.625 C 36.769531 -96.5625 40.46875 -96.410156 43.96875 -96.171875 C 47.476562 -95.941406 50.554688 -95.695312 53.203125 -95.4375 C 55.847656 -95.1875 57.789062 -95 59.03125 -94.875 C 60.269531 -84.1875 61.570312 -73.742188 62.9375 -63.546875 C 64.3125 -53.359375 65.648438 -43.164062 66.953125 -32.96875 C 68.253906 -22.78125 69.421875 -12.328125 70.453125 -1.609375 C 68.910156 -1.609375 67.050781 -1.582031 64.875 -1.53125 C 62.695312 -1.488281 60.472656 -1.457031 58.203125 -1.4375 C 55.941406 -1.414062 53.910156 -1.425781 52.109375 -1.46875 C 51.898438 -2.28125 51.726562 -2.910156 51.59375 -3.359375 C 51.46875 -3.804688 51.351562 -4.285156 51.25 -4.796875 C 51.144531 -5.316406 51.015625 -6.078125 50.859375 -7.078125 C 50.710938 -8.085938 50.488281 -9.570312 50.1875 -11.53125 C 49.894531 -13.5 49.507812 -16.171875 49.03125 -19.546875 L 37.4375 -20.328125 L 36.46875 -0.578125 L 5.640625 -2.109375 L 3.46875 -4.546875 C 3.84375 -12.753906 4.296875 -20.660156 4.828125 -28.265625 C 5.367188 -35.867188 5.957031 -43.328125 6.59375 -50.640625 C 7.238281 -57.953125 7.910156 -65.238281 8.609375 -72.5 C 9.316406 -79.757812 10.054688 -87.175781 10.828125 -94.75 Z M 33.78125 -36.734375 L 49.609375 -35.828125 L 48.328125 -56.40625 C 44.484375 -56.664062 41.535156 -56.773438 39.484375 -56.734375 C 37.429688 -56.691406 35.988281 -56.570312 35.15625 -56.375 C 34.320312 -56.1875 33.832031 -55.992188 33.6875 -55.796875 C 33.539062 -55.609375 33.46875 -55.515625 33.46875 -55.515625 Z M 33.78125 -36.734375 "/></g></g></g><g fill="#fff8e9" fill-opacity="1"><g transform="translate(142.329905, 123.072707)"><g><path d="M 72.171875 -8.53125 L 62.953125 -0.890625 L 59.359375 -1.796875 C 51.578125 -9.660156 45.125 -16.21875 40 -21.46875 C 34.875 -26.726562 31.347656 -30.597656 29.421875 -33.078125 C 29.296875 -26.960938 29.164062 -21.660156 29.03125 -17.171875 C 28.90625 -12.691406 28.800781 -9.234375 28.71875 -6.796875 C 28.632812 -4.359375 28.59375 -3.140625 28.59375 -3.140625 L 15.453125 -3.203125 L 13.265625 -6.15625 C 13.015625 -9.613281 12.8125 -13.507812 12.65625 -17.84375 C 12.507812 -22.1875 12.390625 -26.769531 12.296875 -31.59375 C 12.210938 -36.425781 12.171875 -41.332031 12.171875 -46.3125 C 12.171875 -51.289062 12.191406 -56.140625 12.234375 -60.859375 C 12.285156 -65.585938 12.34375 -70 12.40625 -74.09375 C 12.46875 -78.195312 12.53125 -81.804688 12.59375 -84.921875 C 12.65625 -88.046875 12.707031 -90.484375 12.75 -92.234375 C 12.800781 -93.992188 12.828125 -94.875 12.828125 -94.875 L 16.03125 -95.828125 C 16.03125 -95.828125 16.773438 -95.835938 18.265625 -95.859375 C 19.765625 -95.878906 21.828125 -95.78125 24.453125 -95.5625 C 27.078125 -95.351562 30.101562 -94.84375 33.53125 -94.03125 C 33.65625 -94.03125 33.71875 -92.820312 33.71875 -90.40625 C 33.71875 -88 33.6875 -84.679688 33.625 -80.453125 C 33.5625 -76.222656 33.460938 -71.367188 33.328125 -65.890625 C 36.921875 -70.253906 40.394531 -74.238281 43.75 -77.84375 C 47.101562 -81.457031 50.09375 -84.554688 52.71875 -87.140625 C 55.351562 -89.734375 57.4375 -91.734375 58.96875 -93.140625 C 60.507812 -94.546875 61.28125 -95.25 61.28125 -95.25 L 64.359375 -94.546875 C 64.359375 -94.546875 64.847656 -94.140625 65.828125 -93.328125 C 66.816406 -92.515625 68.066406 -91.425781 69.578125 -90.0625 C 71.097656 -88.695312 72.710938 -87.191406 74.421875 -85.546875 C 76.128906 -83.898438 77.738281 -82.234375 79.25 -80.546875 C 80.769531 -78.859375 81.984375 -77.285156 82.890625 -75.828125 C 82.972656 -75.742188 82.40625 -75.082031 81.1875 -73.84375 C 79.96875 -72.601562 78.320312 -70.988281 76.25 -69 C 74.175781 -67.019531 71.867188 -64.8125 69.328125 -62.375 C 66.785156 -59.9375 64.175781 -57.457031 61.5 -54.9375 C 58.832031 -52.414062 56.289062 -50 53.875 -47.6875 C 51.457031 -45.382812 49.375 -43.359375 47.625 -41.609375 C 49.082031 -39.890625 50.6875 -37.882812 52.4375 -35.59375 C 54.1875 -33.3125 55.976562 -30.921875 57.8125 -28.421875 C 59.65625 -25.921875 61.429688 -23.492188 63.140625 -21.140625 C 64.847656 -18.796875 66.382812 -16.671875 67.75 -14.765625 C 69.125 -12.867188 70.203125 -11.351562 70.984375 -10.21875 C 71.773438 -9.09375 72.171875 -8.53125 72.171875 -8.53125 Z M 72.171875 -8.53125 "/></g></g></g></g></g><g transform="matrix(1, 0, 0, 1, 18, 28)"><g clip-path="url(#d67e5cebb8)"><g fill="#fff8e9" fill-opacity="1"><g transform="translate(0.0847775, 147.851082)"><g><path d="M 6.625 -48.546875 C 5.695312 -52.910156 5.015625 -57.625 4.578125 -62.6875 C 4.148438 -67.75 3.921875 -72.875 3.890625 -78.0625 C 3.867188 -83.25 3.957031 -88.21875 4.15625 -92.96875 C 4.363281 -97.71875 4.59375 -101.953125 4.84375 -105.671875 C 5.101562 -109.398438 5.347656 -112.351562 5.578125 -114.53125 C 5.816406 -116.71875 5.9375 -117.8125 5.9375 -117.8125 C 7.832031 -118.070312 10.4375 -118.210938 13.75 -118.234375 C 17.0625 -118.265625 20.820312 -118.203125 25.03125 -118.046875 C 29.25 -117.890625 33.695312 -117.695312 38.375 -117.46875 C 43.050781 -117.238281 47.710938 -116.957031 52.359375 -116.625 C 57.003906 -116.289062 61.429688 -115.957031 65.640625 -115.625 C 69.859375 -115.289062 73.625 -114.96875 76.9375 -114.65625 C 80.25 -114.351562 82.859375 -114.097656 84.765625 -113.890625 C 84.867188 -112.859375 84.984375 -111.160156 85.109375 -108.796875 C 85.234375 -106.441406 85.375 -103.628906 85.53125 -100.359375 C 85.6875 -97.097656 85.84375 -93.601562 86 -89.875 C 86.15625 -86.15625 86.28125 -82.40625 86.375 -78.625 C 86.476562 -74.851562 86.539062 -71.257812 86.5625 -67.84375 C 86.59375 -64.425781 86.566406 -61.394531 86.484375 -58.75 C 86.410156 -56.101562 86.273438 -54.085938 86.078125 -52.703125 C 83.554688 -52.546875 80.984375 -52.363281 78.359375 -52.15625 C 75.742188 -51.957031 72.710938 -51.726562 69.265625 -51.46875 C 65.828125 -51.21875 61.566406 -50.960938 56.484375 -50.703125 C 56.328125 -44.023438 56.171875 -37.679688 56.015625 -31.671875 C 55.867188 -25.660156 55.726562 -20.328125 55.59375 -15.671875 C 55.46875 -11.023438 55.363281 -7.363281 55.28125 -4.6875 C 55.207031 -2.019531 55.171875 -0.6875 55.171875 -0.6875 L 36.296875 -2.3125 L 33.671875 -5.859375 C 33.210938 -11.660156 32.890625 -18.171875 32.703125 -25.390625 C 32.523438 -32.609375 32.410156 -40.632812 32.359375 -49.46875 C 30.148438 -49.363281 27.671875 -49.257812 24.921875 -49.15625 C 22.179688 -49.0625 19.5 -48.972656 16.875 -48.890625 C 14.257812 -48.816406 12.015625 -48.753906 10.140625 -48.703125 C 8.265625 -48.648438 7.09375 -48.597656 6.625 -48.546875 Z M 6.625 -48.546875 "/></g></g></g><g fill="#fff8e9" fill-opacity="1"><g transform="translate(79.651306, 147.851082)"><g><path d="M 47.078125 -0.46875 L 15.71875 -19.34375 L 15.328125 -23.734375 C 16.921875 -26.972656 18.820312 -30.609375 21.03125 -34.640625 C 23.238281 -38.671875 25.640625 -42.929688 28.234375 -47.421875 C 30.828125 -51.921875 33.515625 -56.507812 36.296875 -61.1875 C 32.441406 -66.375 28.816406 -71.289062 25.421875 -75.9375 C 22.035156 -80.582031 19.046875 -84.71875 16.453125 -88.34375 C 13.859375 -91.96875 11.828125 -94.804688 10.359375 -96.859375 C 8.898438 -98.910156 8.171875 -99.9375 8.171875 -99.9375 L 10.5625 -103.171875 C 10.5625 -103.171875 11.210938 -103.6875 12.515625 -104.71875 C 13.828125 -105.75 15.789062 -107.054688 18.40625 -108.640625 C 21.03125 -110.234375 24.269531 -111.878906 28.125 -113.578125 C 28.226562 -113.628906 28.859375 -112.894531 30.015625 -111.375 C 31.171875 -109.863281 32.738281 -107.757812 34.71875 -105.0625 C 36.695312 -102.363281 38.984375 -99.21875 41.578125 -95.625 C 44.171875 -92.03125 46.957031 -88.148438 49.9375 -83.984375 C 54.09375 -90.765625 57.765625 -96.617188 60.953125 -101.546875 C 64.140625 -106.484375 66.644531 -110.285156 68.46875 -112.953125 C 70.289062 -115.628906 71.203125 -116.96875 71.203125 -116.96875 L 75.125 -115.96875 C 75.125 -115.96875 75.675781 -115.644531 76.78125 -115 C 77.882812 -114.363281 79.375 -113.492188 81.25 -112.390625 C 83.125 -111.285156 85.191406 -110.015625 87.453125 -108.578125 C 89.710938 -107.140625 92.023438 -105.625 94.390625 -104.03125 C 96.753906 -102.4375 99 -100.828125 101.125 -99.203125 C 103.257812 -97.585938 105.097656 -96.0625 106.640625 -94.625 C 106.742188 -94.570312 106.269531 -93.6875 105.21875 -91.96875 C 104.164062 -90.25 102.675781 -87.898438 100.75 -84.921875 C 98.820312 -81.941406 96.570312 -78.445312 94 -74.4375 C 91.4375 -70.425781 88.664062 -66.082031 85.6875 -61.40625 C 82.707031 -56.738281 79.625 -51.882812 76.4375 -46.84375 C 78.59375 -43.8125 80.785156 -40.703125 83.015625 -37.515625 C 85.253906 -34.335938 87.398438 -31.285156 89.453125 -28.359375 C 91.515625 -25.429688 93.34375 -22.8125 94.9375 -20.5 C 96.53125 -18.1875 97.800781 -16.347656 98.75 -14.984375 C 99.695312 -13.628906 100.171875 -12.953125 100.171875 -12.953125 L 85 -1.6875 L 80.75 -3 C 79.832031 -4.082031 78.628906 -5.570312 77.140625 -7.46875 C 75.648438 -9.375 74.054688 -11.441406 72.359375 -13.671875 C 70.660156 -15.910156 69 -18.109375 67.375 -20.265625 C 65.757812 -22.421875 64.335938 -24.269531 63.109375 -25.8125 C 60.078125 -20.988281 57.34375 -16.660156 54.90625 -12.828125 C 52.46875 -9.003906 50.550781 -5.988281 49.15625 -3.78125 C 47.769531 -1.570312 47.078125 -0.46875 47.078125 -0.46875 Z M 47.078125 -0.46875 "/></g></g></g><g fill="#fff8e9" fill-opacity="1"><g transform="translate(180.48279, 147.851082)"><g><path d="M 10.484375 -34.828125 L 22.03125 -34.75 C 22.03125 -34.75 22.019531 -35.453125 22 -36.859375 C 21.976562 -38.273438 21.96875 -40.191406 21.96875 -42.609375 C 21.96875 -45.023438 21.953125 -47.734375 21.921875 -50.734375 C 21.898438 -53.742188 21.898438 -56.84375 21.921875 -60.03125 C 21.953125 -63.21875 21.976562 -66.300781 22 -69.28125 C 22.019531 -72.257812 22.054688 -74.90625 22.109375 -77.21875 L 11.859375 -77.515625 L 10.484375 -78.59375 C 10.273438 -78.800781 10.066406 -79.632812 9.859375 -81.09375 C 9.660156 -82.5625 9.484375 -84.453125 9.328125 -86.765625 C 9.171875 -89.078125 9.023438 -91.582031 8.890625 -94.28125 C 8.765625 -96.976562 8.660156 -99.660156 8.578125 -102.328125 C 8.503906 -105.003906 8.441406 -107.457031 8.390625 -109.6875 C 8.347656 -111.925781 8.3125 -113.710938 8.28125 -115.046875 C 8.257812 -116.378906 8.25 -117.046875 8.25 -117.046875 C 8.914062 -117.253906 10.273438 -117.472656 12.328125 -117.703125 C 14.378906 -117.929688 16.878906 -118.148438 19.828125 -118.359375 C 22.785156 -118.566406 25.9375 -118.734375 29.28125 -118.859375 C 32.625 -118.984375 35.960938 -119.007812 39.296875 -118.9375 C 42.640625 -118.863281 45.722656 -118.671875 48.546875 -118.359375 C 51.367188 -118.046875 53.679688 -117.582031 55.484375 -116.96875 C 55.484375 -116.96875 55.546875 -116.363281 55.671875 -115.15625 C 55.796875 -113.945312 55.945312 -112.328125 56.125 -110.296875 C 56.3125 -108.273438 56.503906 -106.015625 56.703125 -103.515625 C 56.910156 -101.023438 57.066406 -98.492188 57.171875 -95.921875 C 57.273438 -93.359375 57.300781 -90.929688 57.25 -88.640625 C 57.195312 -86.359375 57.046875 -84.398438 56.796875 -82.765625 C 56.328125 -82.765625 55.4375 -82.738281 54.125 -82.6875 C 52.820312 -82.632812 51.382812 -82.566406 49.8125 -82.484375 C 48.25 -82.410156 46.8125 -82.332031 45.5 -82.25 C 44.1875 -82.175781 43.25 -82.113281 42.6875 -82.0625 C 42.632812 -78.675781 42.554688 -74.785156 42.453125 -70.390625 C 42.347656 -65.992188 42.234375 -61.394531 42.109375 -56.59375 C 41.984375 -51.789062 41.851562 -47.023438 41.71875 -42.296875 C 41.59375 -37.578125 41.476562 -33.1875 41.375 -29.125 C 41.894531 -29.070312 42.71875 -29.003906 43.84375 -28.921875 C 44.976562 -28.847656 46.195312 -28.773438 47.5 -28.703125 C 48.8125 -28.628906 50.046875 -28.566406 51.203125 -28.515625 C 52.359375 -28.460938 53.191406 -28.410156 53.703125 -28.359375 C 54.015625 -26.398438 54.171875 -24.210938 54.171875 -21.796875 C 54.171875 -19.390625 54.078125 -16.960938 53.890625 -14.515625 C 53.710938 -12.078125 53.507812 -9.84375 53.28125 -7.8125 C 53.050781 -5.789062 52.847656 -4.160156 52.671875 -2.921875 C 52.492188 -1.691406 52.40625 -1.078125 52.40625 -1.078125 C 50.601562 -0.460938 48.351562 -0.00390625 45.65625 0.296875 C 42.957031 0.609375 40.066406 0.800781 36.984375 0.875 C 33.898438 0.957031 30.816406 0.929688 27.734375 0.796875 C 24.648438 0.671875 21.757812 0.503906 19.0625 0.296875 C 16.375 0.0976562 14.066406 -0.113281 12.140625 -0.34375 C 10.210938 -0.570312 8.914062 -0.789062 8.25 -1 C 8.25 -1 8.195312 -1.640625 8.09375 -2.921875 C 7.988281 -4.210938 7.867188 -5.921875 7.734375 -8.046875 C 7.609375 -10.179688 7.53125 -12.519531 7.5 -15.0625 C 7.476562 -17.601562 7.546875 -20.144531 7.703125 -22.6875 C 7.859375 -25.226562 8.15625 -27.566406 8.59375 -29.703125 C 9.03125 -31.835938 9.660156 -33.546875 10.484375 -34.828125 Z M 10.484375 -34.828125 "/></g></g></g><g fill="#fff8e9" fill-opacity="1"><g transform="translate(237.012286, 147.851082)"><g><path d="M 93.46875 -1.921875 L 13.328125 -3.46875 C 13.078125 -3.925781 12.875 -4.9375 12.71875 -6.5 C 12.5625 -8.070312 12.429688 -9.859375 12.328125 -11.859375 C 12.222656 -13.867188 12.15625 -15.820312 12.125 -17.71875 C 12.101562 -19.625 12.078125 -21.203125 12.046875 -22.453125 C 12.023438 -23.710938 12.015625 -24.34375 12.015625 -24.34375 C 12.015625 -24.34375 12.144531 -24.570312 12.40625 -25.03125 C 12.664062 -25.5 12.945312 -25.960938 13.25 -26.421875 C 13.5625 -26.890625 13.742188 -27.148438 13.796875 -27.203125 C 13.796875 -27.203125 14.578125 -27.097656 16.140625 -26.890625 C 17.710938 -26.679688 19.742188 -26.394531 22.234375 -26.03125 C 24.722656 -25.675781 27.390625 -25.316406 30.234375 -24.953125 C 33.085938 -24.597656 35.8125 -24.238281 38.40625 -23.875 C 41 -23.519531 43.171875 -23.238281 44.921875 -23.03125 C 46.671875 -22.832031 47.695312 -22.734375 48 -22.734375 C 48 -22.734375 48.101562 -23.347656 48.3125 -24.578125 C 48.519531 -25.816406 48.75 -27.304688 49 -29.046875 C 49.257812 -30.796875 49.492188 -32.46875 49.703125 -34.0625 C 39.890625 -34.570312 31.976562 -35.195312 25.96875 -35.9375 C 19.957031 -36.6875 15.601562 -37.367188 12.90625 -37.984375 C 10.207031 -38.597656 8.859375 -38.90625 8.859375 -38.90625 C 8.753906 -38.90625 8.675781 -39.804688 8.625 -41.609375 C 8.570312 -43.410156 8.554688 -45.863281 8.578125 -48.96875 C 8.609375 -52.070312 8.660156 -55.5625 8.734375 -59.4375 C 8.816406 -63.320312 8.9375 -67.367188 9.09375 -71.578125 C 9.25 -75.796875 9.425781 -79.921875 9.625 -83.953125 C 9.832031 -87.984375 10.085938 -91.691406 10.390625 -95.078125 C 10.703125 -98.472656 11.035156 -101.300781 11.390625 -103.5625 C 11.753906 -105.820312 12.171875 -107.257812 12.640625 -107.875 C 12.640625 -107.875 12.804688 -108.101562 13.140625 -108.5625 C 13.472656 -109.03125 13.816406 -109.507812 14.171875 -110 C 14.535156 -110.488281 14.742188 -110.734375 14.796875 -110.734375 C 14.953125 -110.890625 15.992188 -111.066406 17.921875 -111.265625 C 19.847656 -111.472656 22.390625 -111.71875 25.546875 -112 C 28.703125 -112.28125 32.242188 -112.5625 36.171875 -112.84375 C 40.109375 -113.132812 44.171875 -113.40625 48.359375 -113.65625 C 52.546875 -113.914062 56.628906 -114.160156 60.609375 -114.390625 C 64.585938 -114.617188 68.234375 -114.8125 71.546875 -114.96875 C 74.859375 -115.125 77.59375 -115.226562 79.75 -115.28125 C 81.90625 -115.332031 83.242188 -115.304688 83.765625 -115.203125 C 83.960938 -115.148438 84.148438 -114.300781 84.328125 -112.65625 C 84.515625 -111.007812 84.695312 -108.785156 84.875 -105.984375 C 85.050781 -103.191406 85.226562 -100.0625 85.40625 -96.59375 C 85.59375 -93.125 85.738281 -89.550781 85.84375 -85.875 C 85.945312 -82.207031 86.035156 -78.640625 86.109375 -75.171875 C 86.191406 -71.703125 86.21875 -68.566406 86.1875 -65.765625 C 86.164062 -62.960938 86.101562 -60.738281 86 -59.09375 C 85.894531 -57.457031 85.738281 -56.613281 85.53125 -56.5625 C 85.320312 -56.507812 84.394531 -56.46875 82.75 -56.4375 C 81.113281 -56.414062 78.984375 -56.40625 76.359375 -56.40625 C 73.742188 -56.40625 70.84375 -56.40625 67.65625 -56.40625 C 64.46875 -56.40625 61.191406 -56.40625 57.828125 -56.40625 C 54.460938 -56.40625 51.210938 -56.414062 48.078125 -56.4375 C 44.953125 -56.46875 42.128906 -56.492188 39.609375 -56.515625 C 37.085938 -56.546875 35.09375 -56.5625 33.625 -56.5625 C 32.164062 -56.5625 31.4375 -56.5625 31.4375 -56.5625 L 30.359375 -45.765625 L 95.546875 -42.296875 L 96.78125 -41 C 96.78125 -41 96.738281 -40.300781 96.65625 -38.90625 C 96.582031 -37.519531 96.492188 -35.679688 96.390625 -33.390625 C 96.296875 -31.109375 96.171875 -28.59375 96.015625 -25.84375 C 95.859375 -23.101562 95.675781 -20.34375 95.46875 -17.5625 C 95.269531 -14.789062 95.050781 -12.25 94.8125 -9.9375 C 94.582031 -7.625 94.363281 -5.734375 94.15625 -4.265625 C 93.957031 -2.804688 93.726562 -2.023438 93.46875 -1.921875 Z M 93.46875 -1.921875 "/></g></g></g></g></g><g transform="matrix(1, 0, 0, 1, 17, 173)"><g clip-path="url(#233796a3dd)"><g fill="#fff8e9" fill-opacity="1"><g transform="translate(0.964432, 130.630734)"><g><path d="M 5.65625 -41.421875 C 4.863281 -45.140625 4.28125 -49.15625 3.90625 -53.46875 C 3.539062 -57.789062 3.34375 -62.164062 3.3125 -66.59375 C 3.289062 -71.019531 3.367188 -75.257812 3.546875 -79.3125 C 3.722656 -83.375 3.921875 -86.992188 4.140625 -90.171875 C 4.359375 -93.347656 4.566406 -95.863281 4.765625 -97.71875 C 4.960938 -99.582031 5.0625 -100.515625 5.0625 -100.515625 C 6.6875 -100.734375 8.910156 -100.851562 11.734375 -100.875 C 14.554688 -100.90625 17.765625 -100.851562 21.359375 -100.71875 C 24.953125 -100.582031 28.742188 -100.414062 32.734375 -100.21875 C 36.722656 -100.019531 40.703125 -99.78125 44.671875 -99.5 C 48.640625 -99.21875 52.421875 -98.929688 56.015625 -98.640625 C 59.609375 -98.359375 62.816406 -98.085938 65.640625 -97.828125 C 68.472656 -97.566406 70.695312 -97.347656 72.3125 -97.171875 C 72.40625 -96.296875 72.503906 -94.847656 72.609375 -92.828125 C 72.722656 -90.804688 72.84375 -88.40625 72.96875 -85.625 C 73.101562 -82.84375 73.234375 -79.863281 73.359375 -76.6875 C 73.492188 -73.507812 73.601562 -70.3125 73.6875 -67.09375 C 73.78125 -63.875 73.835938 -60.804688 73.859375 -57.890625 C 73.878906 -54.972656 73.859375 -52.382812 73.796875 -50.125 C 73.734375 -47.875 73.613281 -46.15625 73.4375 -44.96875 C 71.289062 -44.832031 69.097656 -44.675781 66.859375 -44.5 C 64.617188 -44.332031 62.03125 -44.140625 59.09375 -43.921875 C 56.164062 -43.703125 52.53125 -43.484375 48.1875 -43.265625 C 48.050781 -37.566406 47.914062 -32.148438 47.78125 -27.015625 C 47.65625 -21.890625 47.535156 -17.34375 47.421875 -13.375 C 47.316406 -9.40625 47.234375 -6.28125 47.171875 -4 C 47.109375 -1.726562 47.078125 -0.59375 47.078125 -0.59375 L 30.96875 -1.96875 L 28.734375 -5 C 28.335938 -9.945312 28.0625 -15.5 27.90625 -21.65625 C 27.75 -27.820312 27.648438 -34.671875 27.609375 -42.203125 C 25.722656 -42.117188 23.609375 -42.03125 21.265625 -41.9375 C 18.921875 -41.851562 16.628906 -41.773438 14.390625 -41.703125 C 12.160156 -41.640625 10.242188 -41.585938 8.640625 -41.546875 C 7.046875 -41.503906 6.050781 -41.460938 5.65625 -41.421875 Z M 5.65625 -41.421875 "/></g></g></g></g></g></svg>
