<svg xmlns="http://www.w3.org/2000/svg" xmlns:xlink="http://www.w3.org/1999/xlink" width="2200" zoomAndPan="magnify" viewBox="0 0 1650 374.999991" height="500" preserveAspectRatio="xMidYMid meet" version="1.0"><defs><g/><clipPath id="173e469189"><rect x="0" width="176" y="0" height="285"/></clipPath><clipPath id="8b35ec5d97"><rect x="0" width="1384" y="0" height="375"/></clipPath></defs><rect x="-165" width="1980" fill="#ffffff" y="-37.499999" height="449.999989" fill-opacity="1"/><rect x="-165" width="1980" fill="#c8242b" y="-37.499999" height="449.999989" fill-opacity="1"/><g transform="matrix(1, 0, 0, 1, 1409, 63)"><g clip-path="url(#173e469189)"><g fill="#fff8e9" fill-opacity="1"><g transform="translate(137.85985, 283.785854)"><g><path d="M -7.4375 -28.5625 C -6.144531 -28.5625 -4.890625 -28.171875 -3.671875 -27.390625 C -2.460938 -26.617188 -1.375 -25.597656 -0.40625 -24.328125 C 0.550781 -23.066406 1.316406 -21.722656 1.890625 -20.296875 C 2.460938 -18.878906 2.75 -17.53125 2.75 -16.25 C 2.75 -14.6875 2.40625 -13.085938 1.71875 -11.453125 C 1.03125 -9.828125 0.046875 -8.453125 -1.234375 -7.328125 C -2.523438 -6.203125 -4.039062 -5.640625 -5.78125 -5.640625 C -7.25 -5.640625 -8.5 -6.097656 -9.53125 -7.015625 C -10.5625 -7.941406 -11.382812 -9.101562 -12 -10.5 C -12.625 -11.894531 -13.085938 -13.359375 -13.390625 -14.890625 C -13.691406 -16.429688 -13.84375 -17.847656 -13.84375 -19.140625 C -13.84375 -21.296875 -13.550781 -23.128906 -12.96875 -24.640625 C -12.394531 -26.160156 -11.125 -27.351562 -9.15625 -28.21875 C -8.882812 -28.40625 -8.609375 -28.507812 -8.328125 -28.53125 C -8.054688 -28.550781 -7.757812 -28.5625 -7.4375 -28.5625 Z M -7.4375 -28.5625 "/></g></g></g><g fill="#fff8e9" fill-opacity="1"><g transform="translate(137.85985, 258.885913)"><g><path d="M -76.6875 -79.03125 C -76.6875 -79.03125 -76.648438 -78.628906 -76.578125 -77.828125 C -76.515625 -77.023438 -76.390625 -75.507812 -76.203125 -73.28125 C -76.023438 -71.050781 -75.816406 -67.800781 -75.578125 -63.53125 C -75.347656 -59.269531 -75.050781 -53.648438 -74.6875 -46.671875 C -74.6875 -46.671875 -74.113281 -46.644531 -72.96875 -46.59375 C -71.820312 -46.550781 -70.296875 -46.566406 -68.390625 -46.640625 C -66.484375 -46.710938 -64.425781 -46.921875 -62.21875 -47.265625 C -60.019531 -47.609375 -57.84375 -48.144531 -55.6875 -48.875 L -55.765625 -66.703125 C -55.765625 -66.703125 -55.773438 -67.125 -55.796875 -67.96875 C -55.816406 -68.820312 -55.835938 -69.8125 -55.859375 -70.9375 C -55.878906 -72.0625 -55.898438 -73.046875 -55.921875 -73.890625 C -55.953125 -74.742188 -55.988281 -75.148438 -56.03125 -75.109375 C -56.082031 -75.054688 -55.765625 -75.085938 -55.078125 -75.203125 C -54.390625 -75.316406 -53.582031 -75.441406 -52.65625 -75.578125 C -51.738281 -75.722656 -50.9375 -75.851562 -50.25 -75.96875 C -49.5625 -76.082031 -49.21875 -76.140625 -49.21875 -76.140625 L -40.6875 -76.140625 C -40.6875 -76.140625 -40.535156 -73.289062 -40.234375 -67.59375 C -39.941406 -61.90625 -39.75 -53.441406 -39.65625 -42.203125 L -22.234375 -41.71875 L -20.375 -43.4375 L -20.09375 -77.03125 C -20.09375 -77.03125 -20.128906 -76.726562 -20.203125 -76.125 C -20.273438 -75.53125 -20.332031 -75.191406 -20.375 -75.109375 C -20.425781 -75.054688 -20.273438 -75.296875 -19.921875 -75.828125 C -19.578125 -76.359375 -19.234375 -76.882812 -18.890625 -77.40625 C -18.546875 -77.9375 -18.375 -78.203125 -18.375 -78.203125 L 1.171875 -78.890625 C 1.171875 -78.890625 1.144531 -78.976562 1.09375 -79.15625 C 1.050781 -79.34375 1.003906 -79.34375 0.953125 -79.15625 C 0.910156 -78.976562 0.878906 -78.347656 0.859375 -77.265625 C 0.835938 -76.191406 0.8125 -74.40625 0.78125 -71.90625 C 0.757812 -69.40625 0.773438 -65.90625 0.828125 -61.40625 C 0.867188 -55.800781 0.832031 -50.566406 0.71875 -45.703125 C 0.601562 -40.835938 0.453125 -36.546875 0.265625 -32.828125 C 0.0859375 -29.117188 -0.0859375 -26.140625 -0.265625 -23.890625 C -0.453125 -21.640625 -0.59375 -20.332031 -0.6875 -19.96875 C -0.820312 -19.457031 -1.3125 -18.960938 -2.15625 -18.484375 C -3.007812 -18.003906 -4.078125 -17.519531 -5.359375 -17.03125 C -6.648438 -16.550781 -7.960938 -16.0625 -9.296875 -15.5625 C -10.347656 -15.1875 -12.25 -14.847656 -15 -14.546875 C -17.757812 -14.253906 -21.097656 -14.015625 -25.015625 -13.828125 C -28.941406 -13.648438 -33.222656 -13.492188 -37.859375 -13.359375 C -42.492188 -13.222656 -47.21875 -13.128906 -52.03125 -13.078125 C -56.851562 -13.035156 -61.515625 -13 -66.015625 -12.96875 C -70.515625 -12.945312 -74.625 -12.945312 -78.34375 -12.96875 C -82.0625 -13 -85.113281 -13.023438 -87.5 -13.046875 C -89.882812 -13.066406 -91.351562 -13.101562 -91.90625 -13.15625 C -93.375 -13.238281 -94.875 -13.507812 -96.40625 -13.96875 C -97.945312 -14.425781 -99.234375 -14.875 -100.265625 -15.3125 C -101.296875 -15.75 -101.8125 -15.96875 -101.8125 -15.96875 L -103.328125 -75.03125 L -103.046875 -79.375 C -103.046875 -79.375 -102.484375 -79.460938 -101.359375 -79.640625 C -100.242188 -79.828125 -98.753906 -80.023438 -96.890625 -80.234375 C -95.035156 -80.441406 -92.945312 -80.578125 -90.625 -80.640625 C -88.3125 -80.710938 -85.945312 -80.632812 -83.53125 -80.40625 C -81.125 -80.175781 -78.84375 -79.71875 -76.6875 -79.03125 Z M -76.6875 -79.03125 "/></g></g></g><g fill="#fff8e9" fill-opacity="1"><g transform="translate(137.85985, 176.715017)"><g><path d="M -4 -14.046875 L -6.40625 -12.734375 C -7.039062 -12.773438 -8.628906 -12.816406 -11.171875 -12.859375 C -13.722656 -12.910156 -16.9375 -12.945312 -20.8125 -12.96875 C -24.695312 -13 -29.015625 -13.023438 -33.765625 -13.046875 C -38.515625 -13.066406 -43.46875 -13.085938 -48.625 -13.109375 C -53.789062 -13.140625 -58.910156 -13.175781 -63.984375 -13.21875 C -69.054688 -13.257812 -73.84375 -13.300781 -78.34375 -13.34375 C -82.84375 -13.394531 -86.820312 -13.46875 -90.28125 -13.5625 C -93.75 -13.65625 -96.445312 -13.769531 -98.375 -13.90625 C -98.46875 -15.414062 -98.535156 -17.316406 -98.578125 -19.609375 C -98.617188 -21.910156 -98.617188 -24.378906 -98.578125 -27.015625 C -98.535156 -29.660156 -98.476562 -32.3125 -98.40625 -34.96875 C -98.332031 -37.632812 -98.238281 -40.144531 -98.125 -42.5 C -98.007812 -44.863281 -97.882812 -46.882812 -97.75 -48.5625 C -97.613281 -50.238281 -97.453125 -51.375 -97.265625 -51.96875 C -95.660156 -52.019531 -93.410156 -52.03125 -90.515625 -52 C -87.628906 -51.976562 -84.375 -51.921875 -80.75 -51.828125 C -77.125 -51.742188 -73.328125 -51.65625 -69.359375 -51.5625 C -65.390625 -51.46875 -61.5 -51.363281 -57.6875 -51.25 C -53.875 -51.132812 -50.375 -51.03125 -47.1875 -50.9375 C -44 -50.84375 -41.335938 -50.773438 -39.203125 -50.734375 C -37.066406 -50.691406 -35.703125 -50.671875 -35.109375 -50.671875 L -36.28125 -68.21875 C -41.507812 -68.175781 -46.738281 -68.164062 -51.96875 -68.1875 C -57.207031 -68.207031 -62.28125 -68.238281 -67.1875 -68.28125 C -72.09375 -68.332031 -76.644531 -68.378906 -80.84375 -68.421875 C -85.050781 -68.472656 -88.722656 -68.53125 -91.859375 -68.59375 C -95.003906 -68.664062 -97.460938 -68.722656 -99.234375 -68.765625 C -101.003906 -68.816406 -101.890625 -68.84375 -101.890625 -68.84375 L -102.921875 -72.28125 C -102.921875 -72.28125 -102.929688 -73.023438 -102.953125 -74.515625 C -102.972656 -76.003906 -102.867188 -78.101562 -102.640625 -80.8125 C -102.410156 -83.519531 -101.859375 -86.710938 -100.984375 -90.390625 C -100.984375 -90.484375 -100.050781 -90.53125 -98.1875 -90.53125 C -96.332031 -90.53125 -93.785156 -90.503906 -90.546875 -90.453125 C -87.316406 -90.410156 -83.59375 -90.34375 -79.375 -90.25 C -75.15625 -90.15625 -70.632812 -90.039062 -65.8125 -89.90625 C -60.988281 -89.769531 -56.078125 -89.617188 -51.078125 -89.453125 C -46.078125 -89.296875 -41.164062 -89.132812 -36.34375 -88.96875 C -31.53125 -88.8125 -27.007812 -88.664062 -22.78125 -88.53125 C -18.5625 -88.394531 -14.84375 -88.28125 -11.625 -88.1875 C -8.414062 -88.09375 -5.894531 -88.007812 -4.0625 -87.9375 C -2.226562 -87.875 -1.3125 -87.84375 -1.3125 -87.84375 Z M -4 -14.046875 "/></g></g></g><g fill="#fff8e9" fill-opacity="1"><g transform="translate(137.85985, 88.073604)"><g><path d="M -1.71875 -83.5 L -3.09375 -11.90625 C -3.507812 -11.675781 -4.414062 -11.492188 -5.8125 -11.359375 C -7.21875 -11.222656 -8.8125 -11.109375 -10.59375 -11.015625 C -12.382812 -10.921875 -14.128906 -10.863281 -15.828125 -10.84375 C -17.523438 -10.820312 -18.9375 -10.796875 -20.0625 -10.765625 C -21.1875 -10.742188 -21.75 -10.734375 -21.75 -10.734375 C -21.75 -10.734375 -21.957031 -10.847656 -22.375 -11.078125 C -22.789062 -11.304688 -23.203125 -11.554688 -23.609375 -11.828125 C -24.023438 -12.109375 -24.253906 -12.273438 -24.296875 -12.328125 C -24.296875 -12.328125 -24.203125 -13.023438 -24.015625 -14.421875 C -23.835938 -15.816406 -23.585938 -17.628906 -23.265625 -19.859375 C -22.941406 -22.085938 -22.617188 -24.472656 -22.296875 -27.015625 C -21.984375 -29.566406 -21.664062 -32 -21.34375 -34.3125 C -21.019531 -36.632812 -20.765625 -38.570312 -20.578125 -40.125 C -20.398438 -41.6875 -20.3125 -42.609375 -20.3125 -42.890625 C -20.3125 -42.890625 -20.859375 -42.976562 -21.953125 -43.15625 C -23.054688 -43.34375 -24.390625 -43.550781 -25.953125 -43.78125 C -27.515625 -44.007812 -29.003906 -44.21875 -30.421875 -44.40625 C -30.878906 -35.632812 -31.441406 -28.5625 -32.109375 -23.1875 C -32.773438 -17.820312 -33.382812 -13.9375 -33.9375 -11.53125 C -34.488281 -9.125 -34.765625 -7.921875 -34.765625 -7.921875 C -34.765625 -7.828125 -35.566406 -7.753906 -37.171875 -7.703125 C -38.773438 -7.660156 -40.960938 -7.648438 -43.734375 -7.671875 C -46.515625 -7.691406 -49.640625 -7.738281 -53.109375 -7.8125 C -56.578125 -7.882812 -60.191406 -7.988281 -63.953125 -8.125 C -67.710938 -8.257812 -71.394531 -8.414062 -75 -8.59375 C -78.601562 -8.78125 -81.914062 -9.007812 -84.9375 -9.28125 C -87.96875 -9.5625 -90.492188 -9.863281 -92.515625 -10.1875 C -94.535156 -10.507812 -95.820312 -10.878906 -96.375 -11.296875 C -96.375 -11.296875 -96.578125 -11.441406 -96.984375 -11.734375 C -97.398438 -12.035156 -97.828125 -12.347656 -98.265625 -12.671875 C -98.703125 -12.992188 -98.921875 -13.175781 -98.921875 -13.21875 C -99.054688 -13.351562 -99.21875 -14.28125 -99.40625 -16 C -99.59375 -17.726562 -99.8125 -20 -100.0625 -22.8125 C -100.3125 -25.632812 -100.5625 -28.800781 -100.8125 -32.3125 C -101.0625 -35.832031 -101.300781 -39.460938 -101.53125 -43.203125 C -101.769531 -46.941406 -101.988281 -50.585938 -102.1875 -54.140625 C -102.394531 -57.703125 -102.566406 -60.960938 -102.703125 -63.921875 C -102.847656 -66.878906 -102.941406 -69.320312 -102.984375 -71.25 C -103.023438 -73.175781 -103.003906 -74.367188 -102.921875 -74.828125 C -102.867188 -75.015625 -102.109375 -75.1875 -100.640625 -75.34375 C -99.171875 -75.507812 -97.1875 -75.671875 -94.6875 -75.828125 C -92.1875 -75.984375 -89.382812 -76.140625 -86.28125 -76.296875 C -83.1875 -76.460938 -80 -76.59375 -76.71875 -76.6875 C -73.4375 -76.78125 -70.242188 -76.859375 -67.140625 -76.921875 C -64.046875 -76.992188 -61.25 -77.019531 -58.75 -77 C -56.25 -76.976562 -54.265625 -76.921875 -52.796875 -76.828125 C -51.328125 -76.734375 -50.570312 -76.59375 -50.53125 -76.40625 C -50.476562 -76.226562 -50.441406 -75.40625 -50.421875 -73.9375 C -50.398438 -72.46875 -50.390625 -70.5625 -50.390625 -68.21875 C -50.390625 -65.875 -50.390625 -63.28125 -50.390625 -60.4375 C -50.390625 -57.59375 -50.390625 -54.664062 -50.390625 -51.65625 C -50.390625 -48.65625 -50.398438 -45.753906 -50.421875 -42.953125 C -50.441406 -40.148438 -50.460938 -37.625 -50.484375 -35.375 C -50.515625 -33.132812 -50.53125 -31.359375 -50.53125 -30.046875 C -50.53125 -28.742188 -50.53125 -28.09375 -50.53125 -28.09375 L -40.890625 -27.125 L -37.796875 -85.359375 L -36.625 -86.46875 C -36.625 -86.46875 -36.003906 -86.429688 -34.765625 -86.359375 C -33.523438 -86.285156 -31.882812 -86.203125 -29.84375 -86.109375 C -27.800781 -86.023438 -25.550781 -85.910156 -23.09375 -85.765625 C -20.632812 -85.628906 -18.164062 -85.46875 -15.6875 -85.28125 C -13.21875 -85.101562 -10.945312 -84.910156 -8.875 -84.703125 C -6.8125 -84.492188 -5.125 -84.296875 -3.8125 -84.109375 C -2.507812 -83.929688 -1.8125 -83.726562 -1.71875 -83.5 Z M -1.71875 -83.5 "/></g></g></g></g></g><g transform="matrix(1, 0, 0, 1, 57, 0)"><g clip-path="url(#8b35ec5d97)"><g fill="#fff8e9" fill-opacity="1"><g transform="translate(0.350309, 283.618285)"><g><path d="M 13.3125 -97.5 C 11.445312 -106.269531 10.078125 -115.734375 9.203125 -125.890625 C 8.328125 -136.054688 7.863281 -146.347656 7.8125 -156.765625 C 7.757812 -167.179688 7.9375 -177.160156 8.34375 -186.703125 C 8.757812 -196.253906 9.222656 -204.769531 9.734375 -212.25 C 10.253906 -219.726562 10.75 -225.660156 11.21875 -230.046875 C 11.6875 -234.429688 11.921875 -236.625 11.921875 -236.625 C 15.734375 -237.132812 20.96875 -237.414062 27.625 -237.46875 C 34.28125 -237.519531 41.835938 -237.390625 50.296875 -237.078125 C 58.753906 -236.773438 67.675781 -236.390625 77.0625 -235.921875 C 86.457031 -235.460938 95.820312 -234.894531 105.15625 -234.21875 C 114.488281 -233.550781 123.382812 -232.878906 131.84375 -232.203125 C 140.3125 -231.535156 147.867188 -230.890625 154.515625 -230.265625 C 161.171875 -229.648438 166.410156 -229.140625 170.234375 -228.734375 C 170.441406 -226.660156 170.671875 -223.25 170.921875 -218.5 C 171.179688 -213.757812 171.460938 -208.113281 171.765625 -201.5625 C 172.078125 -195.007812 172.390625 -187.992188 172.703125 -180.515625 C 173.015625 -173.035156 173.273438 -165.503906 173.484375 -157.921875 C 173.691406 -150.335938 173.816406 -143.113281 173.859375 -136.25 C 173.910156 -129.394531 173.859375 -123.3125 173.703125 -118 C 173.554688 -112.6875 173.273438 -108.640625 172.859375 -105.859375 C 167.804688 -105.546875 162.648438 -105.179688 157.390625 -104.765625 C 152.128906 -104.359375 146.039062 -103.894531 139.125 -103.375 C 132.207031 -102.863281 123.644531 -102.347656 113.4375 -101.828125 C 113.125 -88.410156 112.8125 -75.664062 112.5 -63.59375 C 112.195312 -51.53125 111.914062 -40.828125 111.65625 -31.484375 C 111.394531 -22.148438 111.1875 -14.800781 111.03125 -9.4375 C 110.875 -4.070312 110.796875 -1.390625 110.796875 -1.390625 L 72.890625 -4.640625 L 67.625 -11.765625 C 66.695312 -23.421875 66.050781 -36.492188 65.6875 -50.984375 C 65.332031 -65.484375 65.101562 -81.609375 65 -99.359375 C 60.5625 -99.148438 55.582031 -98.941406 50.0625 -98.734375 C 44.539062 -98.523438 39.148438 -98.34375 33.890625 -98.1875 C 28.628906 -98.03125 24.113281 -97.898438 20.34375 -97.796875 C 16.582031 -97.703125 14.238281 -97.601562 13.3125 -97.5 Z M 13.3125 -97.5 "/></g></g></g><g fill="#fff8e9" fill-opacity="1"><g transform="translate(160.149905, 283.618285)"><g><path d="M 94.5625 -0.921875 L 31.5625 -38.84375 L 30.796875 -47.671875 C 33.992188 -54.160156 37.8125 -61.453125 42.25 -69.546875 C 46.6875 -77.648438 51.507812 -86.21875 56.71875 -95.25 C 61.925781 -104.28125 67.316406 -113.488281 72.890625 -122.875 C 65.148438 -133.289062 57.875 -143.164062 51.0625 -152.5 C 44.257812 -161.84375 38.25 -170.148438 33.03125 -177.421875 C 27.820312 -184.703125 23.75 -190.40625 20.8125 -194.53125 C 17.875 -198.65625 16.40625 -200.71875 16.40625 -200.71875 L 21.203125 -207.21875 C 21.203125 -207.21875 22.515625 -208.25 25.140625 -210.3125 C 27.773438 -212.375 31.722656 -215.003906 36.984375 -218.203125 C 42.242188 -221.398438 48.742188 -224.703125 56.484375 -228.109375 C 56.691406 -228.210938 57.957031 -226.738281 60.28125 -223.6875 C 62.601562 -220.644531 65.75 -216.414062 69.71875 -211 C 73.6875 -205.59375 78.273438 -199.273438 83.484375 -192.046875 C 88.703125 -184.828125 94.300781 -177.039062 100.28125 -168.6875 C 108.632812 -182.300781 116.007812 -194.0625 122.40625 -203.96875 C 128.800781 -213.875 133.832031 -221.507812 137.5 -226.875 C 141.164062 -232.238281 143 -234.921875 143 -234.921875 L 150.890625 -232.90625 C 150.890625 -232.90625 152 -232.257812 154.21875 -230.96875 C 156.4375 -229.675781 159.425781 -227.921875 163.1875 -225.703125 C 166.957031 -223.484375 171.109375 -220.929688 175.640625 -218.046875 C 180.179688 -215.160156 184.820312 -212.117188 189.5625 -208.921875 C 194.3125 -205.722656 198.828125 -202.5 203.109375 -199.25 C 207.390625 -196 211.082031 -192.925781 214.1875 -190.03125 C 214.382812 -189.9375 213.425781 -188.160156 211.3125 -184.703125 C 209.195312 -181.242188 206.203125 -176.519531 202.328125 -170.53125 C 198.460938 -164.550781 193.953125 -157.535156 188.796875 -149.484375 C 183.640625 -141.441406 178.066406 -132.722656 172.078125 -123.328125 C 166.097656 -113.941406 159.910156 -104.195312 153.515625 -94.09375 C 157.847656 -88 162.257812 -81.753906 166.75 -75.359375 C 171.238281 -68.960938 175.546875 -62.820312 179.671875 -56.9375 C 183.796875 -51.0625 187.457031 -45.800781 190.65625 -41.15625 C 193.851562 -36.519531 196.40625 -32.832031 198.3125 -30.09375 C 200.226562 -27.363281 201.1875 -26 201.1875 -26 L 170.6875 -3.40625 L 162.1875 -6.03125 C 160.320312 -8.195312 157.894531 -11.1875 154.90625 -15 C 151.914062 -18.820312 148.71875 -22.976562 145.3125 -27.46875 C 141.90625 -31.957031 138.578125 -36.367188 135.328125 -40.703125 C 132.078125 -45.035156 129.21875 -48.75 126.75 -51.84375 C 120.65625 -42.144531 115.15625 -33.453125 110.25 -25.765625 C 105.351562 -18.078125 101.515625 -12.015625 98.734375 -7.578125 C 95.953125 -3.140625 94.5625 -0.921875 94.5625 -0.921875 Z M 94.5625 -0.921875 "/></g></g></g><g fill="#fff8e9" fill-opacity="1"><g transform="translate(362.657548, 283.618285)"><g><path d="M 21.046875 -69.953125 L 44.265625 -69.796875 C 44.265625 -69.796875 44.238281 -71.210938 44.1875 -74.046875 C 44.132812 -76.890625 44.109375 -80.734375 44.109375 -85.578125 C 44.109375 -90.429688 44.082031 -95.875 44.03125 -101.90625 C 43.976562 -107.9375 43.976562 -114.148438 44.03125 -120.546875 C 44.082031 -126.953125 44.132812 -133.144531 44.1875 -139.125 C 44.238281 -145.101562 44.316406 -150.414062 44.421875 -155.0625 L 23.828125 -155.6875 L 21.046875 -157.84375 C 20.628906 -158.257812 20.210938 -159.9375 19.796875 -162.875 C 19.390625 -165.820312 19.03125 -169.613281 18.71875 -174.25 C 18.414062 -178.894531 18.132812 -183.925781 17.875 -189.34375 C 17.613281 -194.757812 17.40625 -200.148438 17.25 -205.515625 C 17.09375 -210.878906 16.960938 -215.804688 16.859375 -220.296875 C 16.765625 -224.785156 16.691406 -228.367188 16.640625 -231.046875 C 16.585938 -233.734375 16.5625 -235.078125 16.5625 -235.078125 C 17.90625 -235.484375 20.640625 -235.914062 24.765625 -236.375 C 28.890625 -236.84375 33.914062 -237.285156 39.84375 -237.703125 C 45.78125 -238.117188 52.097656 -238.453125 58.796875 -238.703125 C 65.503906 -238.960938 72.210938 -239.015625 78.921875 -238.859375 C 85.628906 -238.703125 91.816406 -238.316406 97.484375 -237.703125 C 103.160156 -237.085938 107.804688 -236.160156 111.421875 -234.921875 C 111.421875 -234.921875 111.550781 -233.707031 111.8125 -231.28125 C 112.070312 -228.851562 112.378906 -225.601562 112.734375 -221.53125 C 113.097656 -217.457031 113.484375 -212.914062 113.890625 -207.90625 C 114.304688 -202.90625 114.617188 -197.828125 114.828125 -192.671875 C 115.035156 -187.515625 115.085938 -182.640625 114.984375 -178.046875 C 114.878906 -173.453125 114.566406 -169.503906 114.046875 -166.203125 C 113.117188 -166.203125 111.335938 -166.148438 108.703125 -166.046875 C 106.078125 -165.941406 103.191406 -165.8125 100.046875 -165.65625 C 96.898438 -165.507812 94.007812 -165.359375 91.375 -165.203125 C 88.75 -165.046875 86.867188 -164.914062 85.734375 -164.8125 C 85.628906 -158 85.472656 -150.179688 85.265625 -141.359375 C 85.054688 -132.546875 84.820312 -123.316406 84.5625 -113.671875 C 84.3125 -104.023438 84.054688 -94.453125 83.796875 -84.953125 C 83.535156 -75.460938 83.304688 -66.644531 83.109375 -58.5 C 84.140625 -58.394531 85.785156 -58.265625 88.046875 -58.109375 C 90.316406 -57.953125 92.769531 -57.796875 95.40625 -57.640625 C 98.039062 -57.484375 100.515625 -57.351562 102.828125 -57.25 C 105.148438 -57.15625 106.828125 -57.054688 107.859375 -56.953125 C 108.484375 -53.023438 108.796875 -48.632812 108.796875 -43.78125 C 108.796875 -38.9375 108.613281 -34.066406 108.25 -29.171875 C 107.882812 -24.273438 107.46875 -19.785156 107 -15.703125 C 106.539062 -11.628906 106.128906 -8.351562 105.765625 -5.875 C 105.410156 -3.40625 105.234375 -2.171875 105.234375 -2.171875 C 101.617188 -0.929688 97.101562 -0.00390625 91.6875 0.609375 C 86.269531 1.234375 80.46875 1.625 74.28125 1.78125 C 68.09375 1.9375 61.898438 1.882812 55.703125 1.625 C 49.515625 1.363281 43.710938 1.023438 38.296875 0.609375 C 32.878906 0.203125 28.238281 -0.226562 24.375 -0.6875 C 20.507812 -1.15625 17.90625 -1.597656 16.5625 -2.015625 C 16.5625 -2.015625 16.457031 -3.300781 16.25 -5.875 C 16.039062 -8.457031 15.804688 -11.890625 15.546875 -16.171875 C 15.296875 -20.453125 15.144531 -25.144531 15.09375 -30.25 C 15.039062 -35.363281 15.164062 -40.472656 15.46875 -45.578125 C 15.78125 -50.679688 16.375 -55.375 17.25 -59.65625 C 18.132812 -63.9375 19.398438 -67.367188 21.046875 -69.953125 Z M 21.046875 -69.953125 "/></g></g></g><g fill="#fff8e9" fill-opacity="1"><g transform="translate(476.190095, 283.618285)"><g><path d="M 187.71875 -3.875 L 26.765625 -6.96875 C 26.253906 -7.894531 25.84375 -9.929688 25.53125 -13.078125 C 25.21875 -16.222656 24.957031 -19.804688 24.75 -23.828125 C 24.550781 -27.859375 24.425781 -31.78125 24.375 -35.59375 C 24.320312 -39.40625 24.269531 -42.578125 24.21875 -45.109375 C 24.164062 -47.640625 24.140625 -48.90625 24.140625 -48.90625 C 24.140625 -48.90625 24.394531 -49.367188 24.90625 -50.296875 C 25.425781 -51.222656 25.992188 -52.148438 26.609375 -53.078125 C 27.234375 -54.003906 27.597656 -54.519531 27.703125 -54.625 C 27.703125 -54.625 29.273438 -54.414062 32.421875 -54 C 35.566406 -53.59375 39.640625 -53.023438 44.640625 -52.296875 C 49.648438 -51.578125 55.015625 -50.859375 60.734375 -50.140625 C 66.460938 -49.421875 71.929688 -48.695312 77.140625 -47.96875 C 82.347656 -47.25 86.707031 -46.679688 90.21875 -46.265625 C 93.726562 -45.859375 95.789062 -45.65625 96.40625 -45.65625 C 96.40625 -45.65625 96.613281 -46.890625 97.03125 -49.359375 C 97.445312 -51.835938 97.910156 -54.832031 98.421875 -58.34375 C 98.941406 -61.851562 99.40625 -65.207031 99.8125 -68.40625 C 80.113281 -69.4375 64.226562 -70.695312 52.15625 -72.1875 C 40.082031 -73.6875 31.335938 -75.054688 25.921875 -76.296875 C 20.503906 -77.535156 17.796875 -78.15625 17.796875 -78.15625 C 17.585938 -78.15625 17.429688 -79.957031 17.328125 -83.5625 C 17.222656 -87.175781 17.195312 -92.101562 17.25 -98.34375 C 17.300781 -104.582031 17.40625 -111.597656 17.5625 -119.390625 C 17.71875 -127.179688 17.945312 -135.304688 18.25 -143.765625 C 18.5625 -152.222656 18.925781 -160.5 19.34375 -168.59375 C 19.757812 -176.695312 20.273438 -184.15625 20.890625 -190.96875 C 21.515625 -197.78125 22.1875 -203.453125 22.90625 -207.984375 C 23.625 -212.523438 24.445312 -215.414062 25.375 -216.65625 C 25.375 -216.65625 25.707031 -217.117188 26.375 -218.046875 C 27.050781 -218.972656 27.75 -219.925781 28.46875 -220.90625 C 29.195312 -221.882812 29.613281 -222.375 29.71875 -222.375 C 30.019531 -222.6875 32.101562 -223.046875 35.96875 -223.453125 C 39.84375 -223.867188 44.953125 -224.359375 51.296875 -224.921875 C 57.640625 -225.492188 64.757812 -226.0625 72.65625 -226.625 C 80.550781 -227.195312 88.703125 -227.738281 97.109375 -228.25 C 105.515625 -228.769531 113.710938 -229.257812 121.703125 -229.71875 C 129.703125 -230.1875 137.03125 -230.578125 143.6875 -230.890625 C 150.34375 -231.203125 155.835938 -231.410156 160.171875 -231.515625 C 164.503906 -231.617188 167.1875 -231.566406 168.21875 -231.359375 C 168.632812 -231.253906 169.019531 -229.550781 169.375 -226.25 C 169.738281 -222.945312 170.097656 -218.484375 170.453125 -212.859375 C 170.816406 -207.242188 171.179688 -200.953125 171.546875 -193.984375 C 171.910156 -187.015625 172.191406 -179.84375 172.390625 -172.46875 C 172.597656 -165.09375 172.78125 -157.921875 172.9375 -150.953125 C 173.09375 -143.992188 173.144531 -137.703125 173.09375 -132.078125 C 173.039062 -126.460938 172.910156 -122.003906 172.703125 -118.703125 C 172.492188 -115.398438 172.1875 -113.695312 171.78125 -113.59375 C 171.363281 -113.488281 169.503906 -113.410156 166.203125 -113.359375 C 162.898438 -113.304688 158.617188 -113.28125 153.359375 -113.28125 C 148.097656 -113.28125 142.269531 -113.28125 135.875 -113.28125 C 129.476562 -113.28125 122.898438 -113.28125 116.140625 -113.28125 C 109.378906 -113.28125 102.851562 -113.304688 96.5625 -113.359375 C 90.269531 -113.410156 84.59375 -113.460938 79.53125 -113.515625 C 74.476562 -113.566406 70.484375 -113.59375 67.546875 -113.59375 C 64.609375 -113.59375 63.140625 -113.59375 63.140625 -113.59375 L 60.96875 -91.921875 L 191.890625 -84.953125 L 194.375 -82.328125 C 194.375 -82.328125 194.296875 -80.929688 194.140625 -78.140625 C 193.984375 -75.359375 193.800781 -71.671875 193.59375 -67.078125 C 193.382812 -62.492188 193.125 -57.441406 192.8125 -51.921875 C 192.507812 -46.398438 192.148438 -40.851562 191.734375 -35.28125 C 191.328125 -29.707031 190.890625 -24.597656 190.421875 -19.953125 C 189.960938 -15.316406 189.523438 -11.523438 189.109375 -8.578125 C 188.691406 -5.640625 188.226562 -4.070312 187.71875 -3.875 Z M 187.71875 -3.875 "/></g></g></g><g fill="#fff8e9" fill-opacity="1"><g transform="translate(659.045844, 283.618285)"><g><path d="M 13.3125 -97.5 C 11.445312 -106.269531 10.078125 -115.734375 9.203125 -125.890625 C 8.328125 -136.054688 7.863281 -146.347656 7.8125 -156.765625 C 7.757812 -167.179688 7.9375 -177.160156 8.34375 -186.703125 C 8.757812 -196.253906 9.222656 -204.769531 9.734375 -212.25 C 10.253906 -219.726562 10.75 -225.660156 11.21875 -230.046875 C 11.6875 -234.429688 11.921875 -236.625 11.921875 -236.625 C 15.734375 -237.132812 20.96875 -237.414062 27.625 -237.46875 C 34.28125 -237.519531 41.835938 -237.390625 50.296875 -237.078125 C 58.753906 -236.773438 67.675781 -236.390625 77.0625 -235.921875 C 86.457031 -235.460938 95.820312 -234.894531 105.15625 -234.21875 C 114.488281 -233.550781 123.382812 -232.878906 131.84375 -232.203125 C 140.3125 -231.535156 147.867188 -230.890625 154.515625 -230.265625 C 161.171875 -229.648438 166.410156 -229.140625 170.234375 -228.734375 C 170.441406 -226.660156 170.671875 -223.25 170.921875 -218.5 C 171.179688 -213.757812 171.460938 -208.113281 171.765625 -201.5625 C 172.078125 -195.007812 172.390625 -187.992188 172.703125 -180.515625 C 173.015625 -173.035156 173.273438 -165.503906 173.484375 -157.921875 C 173.691406 -150.335938 173.816406 -143.113281 173.859375 -136.25 C 173.910156 -129.394531 173.859375 -123.3125 173.703125 -118 C 173.554688 -112.6875 173.273438 -108.640625 172.859375 -105.859375 C 167.804688 -105.546875 162.648438 -105.179688 157.390625 -104.765625 C 152.128906 -104.359375 146.039062 -103.894531 139.125 -103.375 C 132.207031 -102.863281 123.644531 -102.347656 113.4375 -101.828125 C 113.125 -88.410156 112.8125 -75.664062 112.5 -63.59375 C 112.195312 -51.53125 111.914062 -40.828125 111.65625 -31.484375 C 111.394531 -22.148438 111.1875 -14.800781 111.03125 -9.4375 C 110.875 -4.070312 110.796875 -1.390625 110.796875 -1.390625 L 72.890625 -4.640625 L 67.625 -11.765625 C 66.695312 -23.421875 66.050781 -36.492188 65.6875 -50.984375 C 65.332031 -65.484375 65.101562 -81.609375 65 -99.359375 C 60.5625 -99.148438 55.582031 -98.941406 50.0625 -98.734375 C 44.539062 -98.523438 39.148438 -98.34375 33.890625 -98.1875 C 28.628906 -98.03125 24.113281 -97.898438 20.34375 -97.796875 C 16.582031 -97.703125 14.238281 -97.601562 13.3125 -97.5 Z M 13.3125 -97.5 "/></g></g></g><g fill="#fff8e9" fill-opacity="1"><g transform="translate(818.84544, 283.618285)"><g><path d="M 177.65625 -172.390625 C 177.65625 -172.390625 176.75 -172.3125 174.9375 -172.15625 C 173.132812 -172.007812 169.734375 -171.726562 164.734375 -171.3125 C 159.734375 -170.894531 152.4375 -170.425781 142.84375 -169.90625 C 133.25 -169.394531 120.609375 -168.726562 104.921875 -167.90625 C 104.921875 -167.90625 104.867188 -166.613281 104.765625 -164.03125 C 104.660156 -161.457031 104.6875 -158.03125 104.84375 -153.75 C 105 -149.46875 105.460938 -144.847656 106.234375 -139.890625 C 107.015625 -134.941406 108.226562 -130.046875 109.875 -125.203125 L 149.953125 -125.34375 C 149.953125 -125.34375 150.90625 -125.367188 152.8125 -125.421875 C 154.726562 -125.472656 156.945312 -125.523438 159.46875 -125.578125 C 162 -125.628906 164.21875 -125.679688 166.125 -125.734375 C 168.03125 -125.785156 168.9375 -125.863281 168.84375 -125.96875 C 168.738281 -126.070312 168.8125 -125.347656 169.0625 -123.796875 C 169.320312 -122.253906 169.609375 -120.453125 169.921875 -118.390625 C 170.234375 -116.328125 170.515625 -114.519531 170.765625 -112.96875 C 171.023438 -111.425781 171.15625 -110.65625 171.15625 -110.65625 L 171.15625 -91.453125 C 171.15625 -91.453125 164.757812 -91.117188 151.96875 -90.453125 C 139.175781 -89.785156 120.140625 -89.347656 94.859375 -89.140625 L 93.78125 -49.984375 L 97.65625 -45.8125 L 173.171875 -45.1875 C 173.171875 -45.1875 172.5 -45.265625 171.15625 -45.421875 C 169.8125 -45.578125 169.039062 -45.707031 168.84375 -45.8125 C 168.738281 -45.914062 169.273438 -45.578125 170.453125 -44.796875 C 171.640625 -44.023438 172.828125 -43.25 174.015625 -42.46875 C 175.203125 -41.695312 175.796875 -41.3125 175.796875 -41.3125 L 177.34375 2.625 C 177.34375 2.625 177.550781 2.570312 177.96875 2.46875 C 178.382812 2.375 178.382812 2.273438 177.96875 2.171875 C 177.550781 2.066406 176.128906 1.988281 173.703125 1.9375 C 171.285156 1.882812 167.265625 1.832031 161.640625 1.78125 C 156.015625 1.726562 148.148438 1.753906 138.046875 1.859375 C 125.453125 1.960938 113.6875 1.882812 102.75 1.625 C 91.820312 1.363281 82.175781 1.023438 73.8125 0.609375 C 65.457031 0.203125 58.75 -0.203125 53.6875 -0.609375 C 48.632812 -1.023438 45.695312 -1.335938 44.875 -1.546875 C 43.738281 -1.859375 42.628906 -2.96875 41.546875 -4.875 C 40.460938 -6.78125 39.378906 -9.175781 38.296875 -12.0625 C 37.210938 -14.957031 36.101562 -17.898438 34.96875 -20.890625 C 34.144531 -23.265625 33.394531 -27.546875 32.71875 -33.734375 C 32.050781 -39.921875 31.507812 -47.425781 31.09375 -56.25 C 30.6875 -65.070312 30.328125 -74.691406 30.015625 -85.109375 C 29.710938 -95.535156 29.507812 -106.164062 29.40625 -117 C 29.300781 -127.832031 29.222656 -138.300781 29.171875 -148.40625 C 29.117188 -158.519531 29.117188 -167.753906 29.171875 -176.109375 C 29.222656 -184.460938 29.273438 -191.320312 29.328125 -196.6875 C 29.378906 -202.050781 29.457031 -205.351562 29.5625 -206.59375 C 29.769531 -209.894531 30.390625 -213.273438 31.421875 -216.734375 C 32.453125 -220.191406 33.457031 -223.078125 34.4375 -225.390625 C 35.414062 -227.710938 35.90625 -228.875 35.90625 -228.875 L 168.6875 -232.28125 L 178.4375 -231.671875 C 178.4375 -231.671875 178.640625 -230.40625 179.046875 -227.875 C 179.460938 -225.34375 179.898438 -221.988281 180.359375 -217.8125 C 180.828125 -213.632812 181.140625 -208.941406 181.296875 -203.734375 C 181.453125 -198.523438 181.269531 -193.210938 180.75 -187.796875 C 180.238281 -182.378906 179.207031 -177.242188 177.65625 -172.390625 Z M 177.65625 -172.390625 "/></g></g></g><g fill="#fff8e9" fill-opacity="1"><g transform="translate(1003.558058, 283.618285)"><g><path d="M 26.15625 -228.734375 C 33.894531 -230.585938 42.351562 -231.847656 51.53125 -232.515625 C 60.71875 -233.191406 70.003906 -233.453125 79.390625 -233.296875 C 88.773438 -233.140625 97.695312 -232.773438 106.15625 -232.203125 C 114.625 -231.640625 122.054688 -231.046875 128.453125 -230.421875 C 134.847656 -229.804688 139.539062 -229.34375 142.53125 -229.03125 C 145.519531 -203.238281 148.664062 -178.039062 151.96875 -153.4375 C 155.269531 -128.832031 158.492188 -104.226562 161.640625 -79.625 C 164.785156 -55.019531 167.597656 -29.769531 170.078125 -3.875 C 166.359375 -3.875 161.867188 -3.820312 156.609375 -3.71875 C 151.347656 -3.613281 145.984375 -3.535156 140.515625 -3.484375 C 135.046875 -3.429688 130.144531 -3.457031 125.8125 -3.5625 C 125.300781 -5.519531 124.890625 -7.039062 124.578125 -8.125 C 124.265625 -9.207031 123.976562 -10.367188 123.71875 -11.609375 C 123.46875 -12.847656 123.160156 -14.675781 122.796875 -17.09375 C 122.429688 -19.519531 121.890625 -23.101562 121.171875 -27.84375 C 120.453125 -32.59375 119.523438 -39.046875 118.390625 -47.203125 L 90.375 -49.0625 L 88.0625 -1.390625 L 13.625 -5.109375 L 8.359375 -10.984375 C 9.285156 -30.796875 10.394531 -49.882812 11.6875 -68.25 C 12.976562 -86.613281 14.394531 -104.613281 15.9375 -122.25 C 17.488281 -139.894531 19.113281 -157.484375 20.8125 -175.015625 C 22.519531 -192.554688 24.300781 -210.460938 26.15625 -228.734375 Z M 81.5625 -88.671875 L 119.78125 -86.515625 L 116.6875 -136.1875 C 107.394531 -136.800781 100.273438 -137.054688 95.328125 -136.953125 C 90.378906 -136.847656 86.894531 -136.5625 84.875 -136.09375 C 82.863281 -135.632812 81.675781 -135.171875 81.3125 -134.703125 C 80.957031 -134.242188 80.78125 -134.015625 80.78125 -134.015625 Z M 81.5625 -88.671875 "/></g></g></g><g fill="#fff8e9" fill-opacity="1"><g transform="translate(1161.036565, 283.618285)"><g><path d="M 174.25 -20.578125 L 151.96875 -2.171875 L 143.296875 -4.328125 C 124.523438 -23.316406 108.945312 -39.15625 96.5625 -51.84375 C 84.1875 -64.53125 75.675781 -73.867188 71.03125 -79.859375 C 70.71875 -65.097656 70.40625 -52.300781 70.09375 -41.46875 C 69.789062 -30.632812 69.535156 -22.273438 69.328125 -16.390625 C 69.117188 -10.515625 69.015625 -7.578125 69.015625 -7.578125 L 37.296875 -7.734375 L 32.03125 -14.859375 C 31.414062 -23.210938 30.925781 -32.625 30.5625 -43.09375 C 30.195312 -53.570312 29.910156 -64.640625 29.703125 -76.296875 C 29.503906 -87.953125 29.40625 -99.789062 29.40625 -111.8125 C 29.40625 -123.832031 29.457031 -135.539062 29.5625 -146.9375 C 29.664062 -158.34375 29.789062 -168.992188 29.9375 -178.890625 C 30.09375 -188.796875 30.25 -197.515625 30.40625 -205.046875 C 30.5625 -212.578125 30.691406 -218.457031 30.796875 -222.6875 C 30.898438 -226.914062 30.953125 -229.03125 30.953125 -229.03125 L 38.6875 -231.359375 C 38.6875 -231.359375 40.488281 -231.382812 44.09375 -231.4375 C 47.707031 -231.488281 52.6875 -231.253906 59.03125 -230.734375 C 65.382812 -230.222656 72.6875 -228.988281 80.9375 -227.03125 C 81.25 -227.03125 81.40625 -224.113281 81.40625 -218.28125 C 81.40625 -212.445312 81.328125 -204.421875 81.171875 -194.203125 C 81.015625 -183.992188 80.78125 -172.289062 80.46875 -159.09375 C 89.132812 -169.613281 97.515625 -179.234375 105.609375 -187.953125 C 113.710938 -196.671875 120.9375 -204.148438 127.28125 -210.390625 C 133.625 -216.628906 138.65625 -221.453125 142.375 -224.859375 C 146.09375 -228.265625 147.953125 -229.96875 147.953125 -229.96875 L 155.375 -228.265625 C 155.375 -228.265625 156.5625 -227.28125 158.9375 -225.3125 C 161.3125 -223.351562 164.328125 -220.722656 167.984375 -217.421875 C 171.648438 -214.128906 175.546875 -210.492188 179.671875 -206.515625 C 183.796875 -202.546875 187.6875 -198.523438 191.34375 -194.453125 C 195.007812 -190.378906 197.925781 -186.585938 200.09375 -183.078125 C 200.300781 -182.867188 198.9375 -181.269531 196 -178.28125 C 193.0625 -175.289062 189.085938 -171.394531 184.078125 -166.59375 C 179.078125 -161.789062 173.503906 -156.445312 167.359375 -150.5625 C 161.222656 -144.6875 154.929688 -138.707031 148.484375 -132.625 C 142.035156 -126.539062 135.894531 -120.710938 130.0625 -115.140625 C 124.238281 -109.566406 119.210938 -104.664062 114.984375 -100.4375 C 118.492188 -96.3125 122.363281 -91.488281 126.59375 -85.96875 C 130.820312 -80.445312 135.15625 -74.664062 139.59375 -68.625 C 144.03125 -62.59375 148.3125 -56.738281 152.4375 -51.0625 C 156.5625 -45.394531 160.273438 -40.265625 163.578125 -35.671875 C 166.878906 -31.078125 169.484375 -27.410156 171.390625 -24.671875 C 173.296875 -21.941406 174.25 -20.578125 174.25 -20.578125 Z M 174.25 -20.578125 "/></g></g></g></g></g></svg>